<?xml version="1.0" standalone="no"?>
<!DOCTYPE svg PUBLIC "-//W3C//DTD SVG 1.1//EN" "http://www.w3.org/Graphics/SVG/1.1/DTD/svg11.dtd" >
<!--
2013-9-30: Created.
-->
<svg>
<metadata>
Created by iconfont
</metadata>
<defs>

<font id="iconfont" horiz-adv-x="1024" >
  <font-face
    font-family="iconfont"
    font-weight="500"
    font-stretch="normal"
    units-per-em="1024"
    ascent="896"
    descent="-128"
  />
    <missing-glyph />
    
    <glyph glyph-name="xingming" unicode="&#59091;" d="M757.051865 281.506824a631.264786 631.264786 0 0 1-95.970882 34.0091 308.877161 308.877161 0 1 1-457.026388 270.675159 299.5596 299.5596 0 0 1 125.787079-245.983622 294.434941 294.434941 0 0 1 34.474978-22.828025C149.546861 263.33758 0 95.155596 0-91.66151v-6.522293a29.816197 29.816197 0 0 1 29.816197-29.816197h965.299363a31.679709 31.679709 0 0 1 29.350318 31.213831v5.590537c0.465878 157.466788-103.89081 300.957234-267.414013 372.702456z m4.192903 304.684259A249.244768 249.244768 0 1 0 512.465878 836.367607h4.192903a250.176524 250.176524 0 0 0 244.585987-250.176524z m199.861692-619.151957v-12.112829c0-3.727025 0-15.373976 3.261147-23.293904H58.234759c13.044586 191.475887 216.167425 347.545041 452.367607 347.545041 223.155596 0 411.836215-134.172884 448.640582-309.343039z"  horiz-adv-x="1024" />

    
    <glyph glyph-name="mima" unicode="&#59089;" d="M864 512h-32V576a320 320 0 0 1-640 0V512H160A64 64 0 0 1 96 448v-512A64 64 0 0 1 160-128H864a64 64 0 0 1 64 64v512A64 64 0 0 1 864 512zM256 576a256 256 0 0 0 512 0V512h-512zM864-64H160v512H864zM512 64a31.573333 31.573333 0 0 1 32 32v192a32 32 0 0 1-64 0v-192a32 32 0 0 1 32-32z"  horiz-adv-x="1024" />

    
    <glyph glyph-name="shoujihao" unicode="&#59088;" d="M512.639697 54.186515a49.493292 49.493292 0 0 1-25.173312-92.58659 49.066626 49.066626 0 0 1 49.919958 0 49.066626 49.066626 0 0 1 24.746647 42.666631 49.919958 49.919958 0 0 1-49.493293 49.919959zM757.972826 895.999147H266.453236A116.906569 116.906569 0 0 1 149.973333 779.94591v-791.466007A116.906569 116.906569 0 0 1 266.453236-128h491.946257a116.053237 116.053237 0 0 1 116.053236 116.053237V779.94591A116.053237 116.053237 0 0 1 757.972826 895.999147z m0-967.252528H266.453236a59.306617 59.306617 0 0 0-59.306617 59.306618v96.426586h610.559491v-96.426586a59.733284 59.733284 0 0 0-59.733284-59.306618zM266.453236 839.252527h491.946257a59.733284 59.733284 0 0 0 59.306617-59.306617v-639.999467H206.719952v639.999467a59.306617 59.306617 0 0 0 59.733284 59.306617z"  horiz-adv-x="1024" />

    
    <glyph glyph-name="yanzhengma" unicode="&#59087;" d="M927.572254 777.385535c-198.826418 0-396.799504 113.493191-398.506168 114.346524a30.293295 30.293295 0 0 1-15.786647 4.266661 33.279958 33.279958 0 0 1-15.786647-3.839995C495.359461 892.158725 291.41305 777.385535 95.999961 777.385535A31.99996 31.99996 0 0 1 73.386655 767.99888a33.279958 33.279958 0 0 1-8.959988-22.186639v-363.092879a482.986063 482.986063 0 0 1 221.866389-404.906161 739.412409 739.412409 0 0 1 218.879726-104.533203 24.746636 24.746636 0 0 1 8.106657 0h7.67999a722.345764 722.345764 0 0 1 217.599728 105.386535 483.412729 483.412729 0 0 1 221.013057 404.052829V745.812241a31.99996 31.99996 0 0 1-31.99996 31.573294z m-31.573293-394.666173a416.426146 416.426146 0 0 0-191.99976-351.146228 686.079142 686.079142 0 0 0-192.426427-94.719882 702.719122 702.719122 0 0 0-190.719761 93.86655 415.572814 415.572814 0 0 0-193.279759 351.99956V714.665613h3.839996a1023.99872 1023.99872 0 0 1 380.159524 113.066526h2.133331a993.278758 993.278758 0 0 1 377.172862-112.213193h4.693327zM741.119154 532.052508a30.719962 30.719962 0 0 1-22.186639-8.959989L478.292816 282.879486l-139.946492 139.946492a30.719962 30.719962 0 0 1-22.186639 8.959989 31.146628 31.146628 0 0 1-22.186639-9.386655 31.573294 31.573294 0 0 1 0-42.666613l162.559797-162.133131a31.573294 31.573294 0 0 1 44.799944 0l262.399672 262.399672a31.573294 31.573294 0 0 1 0 44.799944 31.146628 31.146628 0 0 1-22.613305 7.253324z"  horiz-adv-x="1024" />

    
    <glyph glyph-name="fanhui" unicode="&#59086;" d="M511.991023-128a61.037028 61.037028 0 0 0-40.084019 16.398008l-455.500209 455.500209a57.393026 57.393026 0 0 0-16.398008 40.995019 61.948028 61.948028 0 0 0 11.843005 35.529016 51.927024 51.927024 0 0 0 10.021005 10.021005L470.085003 879.566463a56.482026 56.482026 0 0 0 40.084019 16.398008 54.660025 54.660025 0 0 0 41.906019-17.309008 58.304027 58.304027 0 0 0 17.309008-40.995019 53.749025 53.749025 0 0 0-16.398008-40.084018L199.517879 444.108263h1018.498468a59.215027 59.215027 0 0 0 0-117.519054H201.33988l353.468162-353.468162a57.393026 57.393026 0 0 0 16.398008-40.995019 58.304027 58.304027 0 0 0-17.309008-40.995019 60.126028 60.126028 0 0 0-41.906019-19.131009z"  horiz-adv-x="1277" />

    
    <glyph glyph-name="fabu" unicode="&#59085;" d="M970.432377 895.895496a49.349328 49.349328 0 0 1-22.497488-5.805804L24.086447 402.402219a45.720701 45.720701 0 0 1 0-80.55552l240.21511-131.356299a53.70368 53.70368 0 0 1 20.320311-4.354352 46.446426 46.446426 0 0 1 40.640623 24.674664 45.720701 45.720701 0 0 1-20.320312 60.235209l-109.584536 58.058032-55.880856 31.206193 341.816666 185.785704L798.435456 713.738419l-416.566384-508.007785a52.252229 52.252229 0 0 1-10.160155-29.029016v-254.003893a44.994975 44.994975 0 1 1 89.264225 0v235.860758l240.940835 298.998867 201.025937 245.295187-60.960934-521.796567-21.046037-164.739667-250.375265 119.744692a42.092074 42.092074 0 0 1-20.320311 4.354352 44.994975 44.994975 0 0 1-40.640623-25.400389 46.446426 46.446426 0 0 1 0-34.109094 47.172151 47.172151 0 0 1 22.497488-26.126115l304.078945-145.145081a42.092074 42.092074 0 0 1 20.320311-4.354352 55.880856 55.880856 0 0 1 21.046037 5.080078 42.817799 42.817799 0 0 1 23.223213 33.383368L1018.330254 847.271893a44.994975 44.994975 0 0 1-47.897877 48.623603z"  horiz-adv-x="1026" />

    
    <glyph glyph-name="shijian" unicode="&#59084;" d="M512 896a512 512 0 1 1 512-512 512 512 0 0 1-512 512z m0-944.274286A432.274286 432.274286 0 1 0 944.274286 384 433.005714 433.005714 0 0 0 512-48.274286zM551.497143 403.017143v219.428571a39.497143 39.497143 0 0 1-78.994286 0v-236.251428a38.034286 38.034286 0 0 1 9.508572-25.6l166.034285-189.44a35.108571 35.108571 0 0 1 54.857143 0 40.96 40.96 0 0 1 4.388572 55.588571z"  horiz-adv-x="1024" />

    
    <glyph glyph-name="riqi" unicode="&#59083;" d="M818.103976 197.675841h-78.287462a46.972477 46.972477 0 0 1-32.880734-14.091743 46.189602 46.189602 0 0 1-13.308869-32.880734 47.755352 47.755352 0 0 1 13.308869-32.880734 46.189602 46.189602 0 0 1 32.880734-13.308869h78.287462a46.189602 46.189602 0 0 1 32.880733 13.308869 47.755352 47.755352 0 0 1 13.308869 32.880734 46.189602 46.189602 0 0 1-13.308869 32.880734 46.972477 46.972477 0 0 1-32.880733 14.091743zM933.969419 817.712538h-147.180428V849.027523a40.70948 40.70948 0 0 1-13.308869 32.880734 46.972477 46.972477 0 0 1-32.880734 14.091743 48.538226 48.538226 0 0 1-32.880734-14.091743 46.189602 46.189602 0 0 1-13.308868-32.880734V817.712538H401.614679V849.027523a43.840979 43.840979 0 0 1-14.091743 32.880734 45.406728 45.406728 0 0 1-65.761468 0 46.189602 46.189602 0 0 1-13.308869-32.880734V817.712538H162.055046A162.83792 162.83792 0 0 1 0 654.874618V34.83792a162.83792 162.83792 0 0 1 162.055046-162.83792h771.914373A162.83792 162.83792 0 0 1 1096.024465 34.83792V654.874618A162.83792 162.83792 0 0 1 933.969419 817.712538zM321.761468 661.137615a46.972477 46.972477 0 0 1 33.663608-13.308869 44.623853 44.623853 0 0 1 32.09786 13.308869 43.840979 43.840979 0 0 1 14.091743 32.880734v31.314984h292.795107v-31.314984a46.189602 46.189602 0 0 1 13.308868-32.880734 46.972477 46.972477 0 0 1 33.663609-13.308869 45.406728 45.406728 0 0 1 32.097859 13.308869 43.058104 43.058104 0 0 1 13.308869 32.880734v31.314984h147.180428a69.675841 69.675841 0 0 0 69.675841-70.458715v-69.675841H92.379205v69.675841a69.675841 69.675841 0 0 0 69.675841 70.458715h146.397553v-31.314984a46.189602 46.189602 0 0 1 13.308869-32.880734zM92.379205 492.036697h910.48318V34.83792a71.24159 71.24159 0 0 0-69.675841-70.458715H161.272171a71.24159 71.24159 0 0 0-69.675841 70.458715zM740.599388 259.522936h78.287462a46.189602 46.189602 0 0 1 32.880734 13.308868 47.755352 47.755352 0 0 1 13.308869 32.880734 46.189602 46.189602 0 0 1-13.308869 32.880734 43.840979 43.840979 0 0 1-32.880734 14.091743h-78.287462a43.840979 43.840979 0 0 1-32.880734-14.091743 46.189602 46.189602 0 0 1-13.308868-32.880734 49.321101 49.321101 0 0 1 13.308868-32.880734 46.189602 46.189602 0 0 1 32.880734-13.308868zM509.651376 104.513761h78.287462a45.406728 45.406728 0 0 1 32.097859 13.308869 44.623853 44.623853 0 0 1 13.308869 32.880734 46.189602 46.189602 0 0 1-13.308869 32.880734 46.972477 46.972477 0 0 1-32.880734 14.091743h-78.287461a45.406728 45.406728 0 0 1-32.09786-14.091743 43.840979 43.840979 0 0 1-14.091743-32.880734 47.755352 47.755352 0 0 1 13.308869-32.880734 47.755352 47.755352 0 0 1 33.663608-13.308869zM277.920489 259.522936h78.287462a45.406728 45.406728 0 0 1 32.097859 13.308868 48.538226 48.538226 0 0 1 14.091744 32.880734 48.538226 48.538226 0 0 1-46.972478 46.972477h-78.287461a46.972477 46.972477 0 0 1-45.406728-46.972477 49.321101 49.321101 0 0 1 13.308868-32.880734 46.189602 46.189602 0 0 1 32.880734-13.308868zM277.920489 104.513761h78.287462a45.406728 45.406728 0 0 1 32.097859 13.308869 45.406728 45.406728 0 0 1 14.091744 32.880734 48.538226 48.538226 0 0 1-46.972478 46.972477h-78.287461a46.972477 46.972477 0 0 1-32.880734-14.091743 46.189602 46.189602 0 0 1-13.308869-32.880734 44.623853 44.623853 0 0 1 13.308869-32.880734 46.189602 46.189602 0 0 1 33.663608-13.308869zM508.868502 259.522936h78.287461a45.406728 45.406728 0 0 1 32.09786 13.308868 47.755352 47.755352 0 0 1 13.308868 32.880734 43.058104 43.058104 0 0 1-13.308868 32.880734 43.840979 43.840979 0 0 1-32.880734 14.091743h-78.287462a45.406728 45.406728 0 0 1-32.880734-14.091743 46.189602 46.189602 0 0 1 0-65.761468 44.623853 44.623853 0 0 1 33.663609-13.308868z"  horiz-adv-x="1096" />

    
    <glyph glyph-name="mobanxiazai" unicode="&#59082;" d="M849.887686 712.1588a357.884022 357.884022 0 0 1-625.428387 0 268.934207 268.934207 0 0 1 43.085067-533.69889 44.474908 44.474908 0 0 1 45.169828 44.474907 45.169828 45.169828 0 0 1-45.169828 45.169828 179.289471 179.289471 0 0 0-11.118727 357.884022h26.406976l11.118727 23.627294a267.544366 267.544366 0 0 0 486.444301 0l11.118727-23.627294h26.406976a179.289471 179.289471 0 0 0-11.813647-357.884022 45.169828 45.169828 0 0 1 0-89.644735 268.934207 268.934207 0 0 1 43.779987 533.69889zM640.021716 84.645652l-57.678395-57.678396V480.750297a45.169828 45.169828 0 0 1-89.644736 0v-455.172882l-57.678396 57.678396a45.864748 45.864748 0 0 1-63.932679 0 45.169828 45.169828 0 0 1 0-63.237759l134.814563-134.814564a53.508873 53.508873 0 0 1 14.593329-9.728886 48.64443 48.64443 0 0 1 17.373011-3.474602 47.94951 47.94951 0 0 1 16.67809 3.474602 59.763157 59.763157 0 0 1 15.28825 10.423807l133.424722 134.119643a43.779987 43.779987 0 0 1 0 63.237759 45.169828 45.169828 0 0 1-63.237759 1.389841z"  horiz-adv-x="1075" />

    
    <glyph glyph-name="danchukuangguanbi" unicode="&#59081;" d="M1006.670769-110.670769a56.713846 56.713846 0 0 0-78.769231 0L513.575385 302.867692l-412.75077-412.750769a57.501538 57.501538 0 0 0-78.76923 78.769231l412.750769 412.750769L22.055385 795.175385a57.501538 57.501538 0 0 0 78.76923 78.76923l412.75077-412.750769L927.113846 873.944615a57.501538 57.501538 0 0 0 78.769231-78.76923L593.132308 381.636923l413.538461-413.538461a56.713846 56.713846 0 0 0 0-78.769231z"  horiz-adv-x="1024" />

    
    <glyph glyph-name="xiala" unicode="&#59080;" d="M1788.550847 862.806172a114.744097 114.744097 0 0 1-160.277469 0L912.488772 145.200231 194.882832 862.806172a113.287029 113.287029 0 0 1-160.277469-160.277469l797.744675-797.744675a114.744097 114.744097 0 0 1 160.277469 0l797.744675 797.744675a114.744097 114.744097 0 0 1-1.821335 160.277469z"  horiz-adv-x="1822" />

    
    <glyph glyph-name="zhongzhi" unicode="&#59079;" d="M510.132434-127.18408a510.862237 510.862237 0 0 0-132.824182 17.515277 519.619875 519.619875 0 0 0-181.720996 91.225399 505.023811 505.023811 0 0 0-131.364575 154.718278A510.862237 510.862237 0 0 0 263.458954 830.317712 510.862237 510.862237 0 0 0 449.558768 890.891378a601.357833 601.357833 0 0 0 62.033272 0 487.508535 487.508535 0 0 0 133.553985-18.24508 493.34696 493.34696 0 0 0 180.991192-91.2254 484.589322 484.589322 0 0 0 97.063825-99.983037l6.568229 92.685005a45.247798 45.247798 0 0 0 89.765793 0v-204.344894a43.058389 43.058389 0 0 0-43.058388-43.058389h-203.615092a43.788192 43.788192 0 0 0-43.058389 43.058389 43.788192 43.788192 0 0 0 43.058389 46.707404h84.657171a296.300097 296.300097 0 0 1-83.927368 97.793628 425.475263 425.475263 0 1 1 162.746113-337.898879 40.868979 40.868979 0 0 0 9.487441 25.543112 42.328585 42.328585 0 0 0 33.570947 16.05567 43.788192 43.788192 0 0 0 26.272915-8.757638 40.868979 40.868979 0 0 0 16.055671-32.841144 498.455582 498.455582 0 0 0-17.515277-130.634772 516.700662 516.700662 0 0 0-91.225399-180.991193 503.564205 503.564205 0 0 0-340.818093-191.93824 589.680982 589.680982 0 0 0-62.033271 0z"  horiz-adv-x="1024" />

    
    <glyph glyph-name="xinzeng" unicode="&#59078;" d="M972.418729 433.384397l-418.314894-7.262411V847.341844a45.02695 45.02695 0 1 1-90.053901 0v-417.588653H45.735041a45.753191 45.753191 0 0 1 0-90.780141h418.314893v-421.9461a45.02695 45.02695 0 1 1 90.053901 0V335.341844h421.219858a45.753191 45.753191 0 0 1 0 90.780142z"  horiz-adv-x="1024" />

    
    <glyph glyph-name="daoru" unicode="&#59077;" d="M979.446505 272.981455a43.82311 43.82311 0 0 1-43.82311-43.092725v-207.429386a64.273894 64.273894 0 0 0-64.273894-64.273895H152.650499a64.273894 64.273894 0 0 0-64.273894 64.273895v204.507846a43.092725 43.092725 0 0 1-43.092725 43.092724 42.36234 42.36234 0 0 1-43.092725-43.092724v-214.733239a140.233951 140.233951 0 0 1 139.503567-140.233951h741.340941a140.964337 140.964337 0 0 1 140.233952 140.233951V226.96719a43.82311 43.82311 0 0 1-43.82311 46.014265zM482.054208 197.751783a41.631954 41.631954 0 0 1 28.485022-11.686162 39.440799 39.440799 0 0 1 29.215406 12.416547l210.350927 219.11555a41.631954 41.631954 0 0 1 0 59.891583 38.710414 38.710414 0 0 1-56.970042 0l-141.694722-146.077033V858.019971a40.901569 40.901569 0 0 1-81.072753 0v-526.607703l-141.694722 146.077033a38.710414 38.710414 0 0 1-56.970043 0 42.36234 42.36234 0 0 1 0-59.891583z"  horiz-adv-x="1026" />

    
    <glyph glyph-name="sousuo" unicode="&#59076;" d="M999.556145-54.267807l-183.965472 183.965472a459.913681 459.913681 0 1 1-602.997937-73.002171 454.803529 454.803529 0 0 1 259.157709-80.302389 461.373724 461.373724 0 0 1 281.058361 96.362867l185.425515-185.425516a43.801303 43.801303 0 0 1 30.660912-13.140391 40.881216 40.881216 0 0 1 30.660912 13.140391 43.071281 43.071281 0 0 1 0 58.401737zM471.750445 807.887839A373.771118 373.771118 0 1 0 97.979327 434.116721a373.771118 373.771118 0 0 0 373.771118 373.771118z"  horiz-adv-x="1024" />

    
    <glyph glyph-name="tuichuxitong" unicode="&#59075;" d="M747.234702 142.791111a44.373333 44.373333 0 0 1-44.373333-44.373333v-101.262222a41.528889 41.528889 0 0 0-38.115556-35.84h-512a40.391111 40.391111 0 0 0-37.546666 35.84V770.844444a41.528889 41.528889 0 0 0 37.546666 36.408889h512a42.097778 42.097778 0 0 0 38.115556-36.408889v-98.417777a44.942222 44.942222 0 1 1 89.315555 0V770.844444A129.706667 129.706667 0 0 1 664.745813 896h-512A129.137778 129.137778 0 0 1 25.883591 770.844444v-773.688888A129.137778 129.137778 0 0 1 152.745813-128h512a129.137778 129.137778 0 0 1 126.862223 125.155556v101.262222a44.373333 44.373333 0 0 1-44.373334 44.373333zM423.536924 384.568889a44.373333 44.373333 0 0 1 44.373334-44.942222h284.444444a44.942222 44.942222 0 0 1 0 89.315555h-284.444444a44.373333 44.373333 0 0 1-44.373334-44.373333zM964.550258 465.92l-113.777778 113.777778a44.373333 44.373333 0 0 1-63.146667 0 45.511111 45.511111 0 0 1 0-63.146667l113.777778-113.777778a26.168889 26.168889 0 0 0 7.395556-18.204444 26.168889 26.168889 0 0 0-7.395556-17.635556l-113.777778-113.777777a44.373333 44.373333 0 0 1 0-63.146667 47.217778 47.217778 0 0 1 31.288889-13.084445 43.804444 43.804444 0 0 1 31.857778 13.084445l113.777778 113.777778a113.777778 113.777778 0 0 1 33.564444 80.782222 113.777778 113.777778 0 0 1-33.564444 81.351111z"  horiz-adv-x="1024" />

    
    <glyph glyph-name="yonghutouxiang" unicode="&#59074;" d="M1021.302583-83.543424a510.995128 510.995128 0 0 1-351.053653 440.988796 292.800208 292.800208 0 1 1-318.349965 0A510.995128 510.995128 0 0 1 0.845312-83.543424a89.424147 89.424147 0 0 1 0-11.752888 36.280654 36.280654 0 0 1 35.769659-32.703688h948.406958a36.280654 36.280654 0 0 1 35.769659 32.703688 31.681698 31.681698 0 0 1 0 11.752888z m0 0"  horiz-adv-x="1024" />

    
    <glyph glyph-name="zuoyeguanli" unicode="&#59073;" d="M739.84 530.944H295.424a41.472 41.472 0 1 1 0-82.432h444.416a41.472 41.472 0 0 1 0 82.432zM739.84 709.632H295.424a40.96 40.96 0 1 1 0-81.92h444.416a40.96 40.96 0 0 1 0 81.92zM534.528 352.256H295.424a41.472 41.472 0 1 1 0-82.432h239.104a41.472 41.472 0 1 1 0 82.432zM870.4 896H153.6a102.4 102.4 0 0 1-102.4-102.4v-819.2a102.4 102.4 0 0 1 102.4-102.4h716.8a102.4 102.4 0 0 1 102.4 102.4V793.6a102.4 102.4 0 0 1-102.4 102.4z m17.92-901.12a37.888 37.888 0 0 0-38.4-38.4H172.032a38.4 38.4 0 0 0-38.4 38.4V773.12a38.912 38.912 0 0 0 38.4 38.4h675.84a38.4 38.4 0 0 0 38.4-38.4z"  horiz-adv-x="1024" />

    
    <glyph glyph-name="ziyuanguanli" unicode="&#59072;" d="M962.85745 189.281359a27.122439 27.122439 0 0 0-17.911044 8.69965 27.634183 27.634183 0 0 0-7.164418 18.422789 31.728136 31.728136 0 0 0 3.582209 11.770115 35.310345 35.310345 0 0 1 0 34.286857 38.38081 38.38081 0 0 1-13.305347 13.817091l-89.555223 51.174413a37.357321 37.357321 0 0 1-17.911044 4.605697 35.822089 35.822089 0 0 1-30.704648-16.887556 25.075462 25.075462 0 0 0-44.009995 0 37.357321 37.357321 0 0 1-31.216392 16.887556 34.286857 34.286857 0 0 1-17.3993-4.605697l-89.555222-51.174413a31.728136 31.728136 0 0 1-13.305348-13.817091 34.286857 34.286857 0 0 1 0-34.286857 26.610695 26.610695 0 0 0-22.004997-38.892554 35.310345 35.310345 0 0 1-34.286857-35.822089v-102.348825a40.93953 40.93953 0 0 1 5.629186-19.446277 37.869065 37.869065 0 0 1 29.169415-16.887556 24.563718 24.563718 0 0 0 17.911044-8.187906 26.098951 26.098951 0 0 0 6.652674-19.446277 19.958021 19.958021 0 0 0-2.558721-10.234883 36.333833 36.333833 0 0 1 13.817092-47.08046l90.066966-51.174412a34.798601 34.798601 0 0 1 17.911045-5.117442 35.822089 35.822089 0 0 1 30.192903 16.375812 25.075462 25.075462 0 0 0 22.004998 11.770115 26.098951 26.098951 0 0 0 22.004997-11.770115 34.286857 34.286857 0 0 1 29.68116-16.375812 35.822089 35.822089 0 0 1 16.887556 4.093953l90.066967 51.174413a35.310345 35.310345 0 0 1 14.328835 47.08046 25.587206 25.587206 0 0 0 0 25.075462 26.610695 26.610695 0 0 0 21.493254 13.305348 36.333833 36.333833 0 0 1 34.7986 36.333833v102.348825a35.822089 35.822089 0 0 1-35.310345 36.333833z m-28.145927-116.677661a89.555222 89.555222 0 0 1-58.33883-99.790105l-51.174413-29.681159a91.090455 91.090455 0 0 1-57.315342 20.981509 86.996502 86.996502 0 0 1-57.315343-20.981509l-51.174412 29.681159a89.555222 89.555222 0 0 1-58.338831 99.790105v58.850575a89.043478 89.043478 0 0 1 57.827086 102.348825l51.174413 29.169416a88.531734 88.531734 0 0 1 58.338831-22.004998 91.090455 91.090455 0 0 1 58.850574 22.004998l51.174413-29.169416a90.066967 90.066967 0 0 1 58.338831-102.348825zM767.371194 208.727636a106.442779 106.442779 0 1 1 106.442778-105.931034 106.442779 106.442779 0 0 1-106.442778 105.931034z m0-148.405797a42.474763 42.474763 0 1 0 41.963018 42.474763 41.963018 41.963018 0 0 0-41.963018-42.474763zM268.932413 710.748626a41.451274 41.451274 0 0 1 0-82.390805h444.193903a41.451274 41.451274 0 1 1 0 82.390805zM549.879939 465.111444a41.451274 41.451274 0 0 1-41.451274 41.451275H269.444157a41.451274 41.451274 0 1 1 0-82.390805h238.984508a40.93953 40.93953 0 0 1 41.451274 40.93953zM465.953902-43.050475H148.160799a38.38081 38.38081 0 0 0-40.427786 37.357322V772.157921a37.869065 37.869065 0 0 0 38.380809 38.38081h678.06097a38.38081 38.38081 0 0 0 38.380809-38.38081v-317.281359a42.474763 42.474763 0 0 1 84.437781 0V793.13943a102.348826 102.348826 0 0 1-102.348825 102.348826h-716.441779a102.348826 102.348826 0 0 1-102.348826-102.348826v-818.790604a102.348826 102.348826 0 0 1 102.348826-102.348826h337.751124a42.474763 42.474763 0 0 1 0 84.437781z"  horiz-adv-x="1024" />

    
    <glyph glyph-name="yonghuguanli" unicode="&#59071;" d="M934.919443-123.129608a52.356718 52.356718 0 0 0-51.747919 40.180738 403.02497 403.02497 0 0 1-786.568371 0 52.965517 52.965517 0 0 0-51.13912-38.96314H35.114449a46.268728 46.268728 0 0 0-32.26635 60.879905A510.173603 510.173603 0 0 0 333.425983 299.376932a313.53151 313.53151 0 1 0 304.399524 0 510.782402 510.782402 0 0 0 343.362664-365.279429 51.747919 51.747919 0 0 0-3.043995-42.007134 45.05113 45.05113 0 0 0-29.222355-20.090369 49.921522 49.921522 0 0 0-14.002378 4.870392zM485.016946 796.156956a217.34126 217.34126 0 1 1 214.297265-216.732461 216.123662 216.123662 0 0 1-214.297265 216.732461z m685.507729-791.438763a56.618312 56.618312 0 0 0-54.791914 45.051129 291.005945 291.005945 0 0 1-286.744352 243.51962h-51.139121a60.879905 60.879905 0 0 0-42.007134 18.87277 49.921522 49.921522 0 0 0-11.567182 37.136742 60.879905 60.879905 0 0 0 18.872771 42.615934 56.618312 56.618312 0 0 0 37.136742 14.002378h34.092746a182.639715 182.639715 0 0 1 167.419739 170.463733 191.7717 191.7717 0 0 1-182.639715 179.59572 52.965517 52.965517 0 1 0 0 105.931034 289.179548 289.179548 0 0 0 284.917955-285.526754 277.003567 277.003567 0 0 0-78.535077-191.162901 304.399524 304.399524 0 0 0-24.960761-23.134364 410.939358 410.939358 0 0 0 103.495838-60.879905 398.763377 398.763377 0 0 0 134.54459-220.385255 60.879905 60.879905 0 0 0 0-42.615934 47.486326 47.486326 0 0 0-32.26635-28.613555z"  horiz-adv-x="1228" />

    
    <glyph glyph-name="xueqingtongji" unicode="&#59070;" d="M118.754193 237.476265a45.556565 45.556565 0 0 1-46.068437-45.556565v-274.363135a46.068437 46.068437 0 0 1 91.625002 0v274.363135a45.556565 45.556565 0 0 1-45.556565 45.556565z m261.566347 292.79051a45.556565 45.556565 0 0 1-45.556566-46.068437v-566.641773a46.068437 46.068437 0 0 1 91.625002 0V484.198338a46.068437 46.068437 0 0 1-46.068436 46.068437z m524.156436 0a45.556565 45.556565 0 0 1-45.556565-46.068437v-566.641773a46.068437 46.068437 0 0 1 91.625002 0V484.198338a46.068437 46.068437 0 0 1-46.068437 46.068437z m-262.078218-219.592882a45.556565 45.556565 0 0 1-45.556565-45.556565v-347.560763a46.068437 46.068437 0 0 1 91.625002 0v345.001405a45.556565 45.556565 0 0 1-46.068437 45.556565zM978.186475 895.74304h-164.822629a46.068437 46.068437 0 1 1 0-91.625002h54.258381l-220.104754-217.033524-224.711597 222.664111a44.020951 44.020951 0 0 1-61.936454 0L13.30866 461.675991a45.249442 45.249442 0 0 1 63.98394-63.98394l315.824728 315.312857 219.592882-219.592882v-2.559358a48.115923 48.115923 0 0 1 24.057961-12.796788 43.509079 43.509079 0 0 1 37.878493 11.773045l253.376402 250.305173v-55.282124a45.556565 45.556565 0 0 1 91.113131 0V849.674604a45.556565 45.556565 0 0 1-45.556565 45.556565z m0 0"  horiz-adv-x="1024" />

    
    <glyph glyph-name="shouye" unicode="&#59069;" d="M597.967743-128a41.430342 41.430342 0 0 0-40.40737 40.918856v310.471821h-92.067427v-310.471821a41.430342 41.430342 0 0 0-40.918856-40.918856H274.70878a160.60651 160.60651 0 0 0-153.445711 167.255824v246.024623h-11.252685a102.29714 102.29714 0 0 0-98.205255 61.889769 122.245083 122.245083 0 0 0 32.735085 129.917368L398.999805 847.914718a159.583539 159.583539 0 0 0 112.015369 48.079656 150.376796 150.376796 0 0 0 112.015368-48.591142l353.948105-372.36159a115.595768 115.595768 0 0 0 32.2236-130.94034 102.29714 102.29714 0 0 0-97.693769-60.866798h-10.7412v-245.513137a158.049082 158.049082 0 0 0-153.44571-164.698396z m153.44571 83.883655a77.234341 77.234341 0 0 1 69.562056 83.372169v285.920507a40.918856 40.918856 0 0 0 40.40737 40.407371h51.14857a20.970914 20.970914 0 0 1 20.970914 11.252685 46.033713 46.033713 0 0 1-17.902 40.40737l-351.902162 372.361591a69.05057 69.05057 0 0 1-51.14857 22.505371 70.073541 70.073541 0 0 1-51.14857-22.505371L107.964441 417.243757a51.14857 51.14857 0 0 1-18.413485-41.941827c0-4.603371 4.603371-9.718228 20.970914-9.718228h51.14857a40.918856 40.918856 0 0 0 40.40737-40.407371v-285.920507a77.234341 77.234341 0 0 1 69.562056-83.372169h111.503882v270.575936a82.860684 82.860684 0 0 0 17.902 62.912741 70.073541 70.073541 0 0 0 51.14857 17.902h119.176168a71.096512 71.096512 0 0 0 51.148571-17.902 84.395141 84.395141 0 0 0 17.390513-62.912741v-270.575936z"  horiz-adv-x="1024" />

    
    <glyph glyph-name="kechengguanli" unicode="&#59068;" d="M864.511587 896H158.976645A82.431876 82.431876 0 0 1 77.056768 813.568124V-46.078587A81.407878 81.407878 0 0 1 158.976645-127.998464h705.534942a81.919877 81.919877 0 0 1 82.431876 81.919877V813.568124A82.943876 82.943876 0 0 1 864.511587 896z m-378.879432-82.431876v-188.415718l-9.727985 10.239985-38.399943 37.887943a28.159958 28.159958 0 0 1-39.423941 0l-51.199923-51.199923V812.544125z m-220.15967 0v-265.215603a40.447939 40.447939 0 0 1 40.44794-40.447939 102.399846 102.399846 0 0 1 71.167893 29.183956l40.447939 39.93594 39.93594-39.93594a102.399846 102.399846 0 0 1 68.095898-29.183956 39.423941 39.423941 0 0 1 28.671957 11.775982 40.959939 40.959939 0 0 1 12.287982 28.671957V813.568124h296.447555v-712.702931H158.976645V813.568124zM158.976645-46.078587v65.023903h705.534942v-65.023903z m0 0"  horiz-adv-x="1024" />

    
    <glyph glyph-name="huatitaolun" unicode="&#59067;" d="M512.103552 895.999489a511.23264 511.23264 0 0 1-451.418421-752.534446c4.089861-7.66849 12.269583-20.960538 24.027934-40.898611l-32.207656-118.605973a47.544636 47.544636 0 0 1 45.499705-60.325451 54.701892 54.701892 0 0 1 12.780816 0l118.605972 32.718889 19.938073-11.758351a506.120313 506.120313 0 0 1 261.751112-72.595035 511.23264 511.23264 0 1 1 0 1022.46528z m0-936.066964a424.834324 424.834324 0 0 0-217.785105 60.325452l-38.85368 22.494236a45.499705 45.499705 0 0 1-24.539167 6.646024h-12.269583l-59.302987-16.359444 16.359445 59.302986a51.123264 51.123264 0 0 1-5.112327 37.319983c-17.38191 29.14026-28.117795 48.055868-32.718889 56.23559A425.345556 425.345556 0 1 0 512.103552-38.533777zM321.92501 420.553134a62.370382 62.370382 0 0 1-61.85915 0 62.370382 62.370382 0 0 1 0-107.870087 62.370382 62.370382 0 0 1 61.85915 0 62.370382 62.370382 0 0 1 0 107.870087zM543.288743 420.553134a59.302986 59.302986 0 0 1-31.185191 8.179722 61.859149 61.859149 0 0 1-31.185191-8.179722 62.370382 62.370382 0 0 1 0-107.870087 67.482708 67.482708 0 0 1 31.185191-8.179722 64.415313 64.415313 0 0 1 31.185191 8.179722 62.370382 62.370382 0 0 1 0 107.870087zM764.652476 420.553134a59.302986 59.302986 0 0 1-31.185191 8.179722 61.859149 61.859149 0 0 1-31.185191-8.179722 62.370382 62.370382 0 0 1 0-107.870087 67.482708 67.482708 0 0 1 31.185191-8.179722 64.415313 64.415313 0 0 1 31.185191 8.179722 62.370382 62.370382 0 0 1 0 107.870087z"  horiz-adv-x="1024" />

    
    <glyph glyph-name="banjiguanli" unicode="&#59066;" d="M234.496 179.2a40.448 40.448 0 0 1-40.96 40.96H56.32a40.96 40.96 0 1 1 0-81.92h136.704a40.96 40.96 0 0 1 41.472 40.96zM235.008 179.2zM56.32 547.328h136.704a41.472 41.472 0 0 1 0 82.432H55.808a41.472 41.472 0 0 1 0-82.432zM193.024 424.96H55.808a41.472 41.472 0 0 1 0-82.432h137.216a41.472 41.472 0 0 1 0 82.432zM326.144 140.8a41.472 41.472 0 0 1 80.896-15.36 178.176 178.176 0 0 0 350.208 0 40.96 40.96 0 0 1 68.096-24.576 40.448 40.448 0 0 1 12.8 39.936 260.096 260.096 0 0 1-153.6 191.488 187.392 187.392 0 1 1-204.8 0 260.096 260.096 0 0 1-153.6-191.488z m151.04 349.184a102.4 102.4 0 0 0 104.96 104.96 105.472 105.472 0 1 0-104.96-104.96zM906.24 896h-716.8a102.4 102.4 0 0 1-102.4-102.4v-34.816a42.496 42.496 0 0 1 84.48 0V773.12a38.4 38.4 0 0 0 38.4 38.4H885.76a38.912 38.912 0 0 0 38.4-38.4v-778.24a38.4 38.4 0 0 0-38.4-38.4H209.92a37.888 37.888 0 0 0-38.4 38.4v13.824a42.496 42.496 0 1 1-84.48 0V-25.6a102.4 102.4 0 0 1 102.4-102.4h716.8a102.4 102.4 0 0 1 102.4 102.4V793.6a102.4 102.4 0 0 1-102.4 102.4z"  horiz-adv-x="1024" />

    
    <glyph glyph-name="shi" unicode="&#59065;" d="M1488.472574 873.316456a78.852321 78.852321 0 0 1-108.016878 0L568.168776 67.510549l-432.06751 432.06751a79.932489 79.932489 0 0 1-113.417722 0 82.092827 82.092827 0 0 1 0-113.417721l489.316456-488.236287a78.852321 78.852321 0 0 1 108.016878 0l864.135021 864.135021a79.932489 79.932489 0 0 1 4.320675 111.257384z"  horiz-adv-x="1512" />

    
    <glyph glyph-name="fou" unicode="&#59064;" d="M608.463768 384l395.130435 395.130435a68.637681 68.637681 0 0 1-92.753623 92.753623L515.710145 476.753623 120.57971 871.884058a68.637681 68.637681 0 0 1-97.391304-92.753623l395.130435-395.130435L23.188406-11.130435a68.637681 68.637681 0 0 1 97.391304-92.753623l395.130435 395.130435 395.130435-395.130435a68.637681 68.637681 0 0 1 92.753623 92.753623z"  horiz-adv-x="1024" />

    


  </font>
</defs>
</svg>
